<svg width="40" height="28" viewBox="0 0 40 28" fill="none" xmlns="http://www.w3.org/2000/svg">
    <path d="M27.9136 0C26.1926 0 13.656 0 12.1486 0C1.735 0 -4.2318 28 3.55644 28C10.1262 28 11.0055 19.8098 19.9997 19.8098C27.2729 19.8098 31.5439 27.8995 36.4053 27.8995C44.1809 27.8995 38.3272 0 27.9136 0ZM12.2114 13.9937C9.33482 13.9937 6.99835 11.6572 6.99835 8.78062C6.99835 5.90399 9.33482 3.56752 12.2114 3.56752C15.0881 3.56752 17.4245 5.90399 17.4245 8.78062C17.4245 11.6572 15.0881 13.9937 12.2114 13.9937ZM25.15 9.60969C24.2958 9.34589 23.8184 8.44145 24.0948 7.58726C24.3586 6.73306 25.263 6.26828 26.1172 6.53208C26.9714 6.79587 27.4488 7.70031 27.1724 8.55451C26.9086 9.4087 26.0042 9.87349 25.15 9.60969ZM30.0365 13.4787C29.6345 14.7725 28.2527 15.5011 26.9463 15.0866C25.6525 14.6846 24.9239 13.3028 25.3384 11.9964C25.7404 10.7026 27.1222 9.97398 28.4286 10.3885C29.7224 10.8031 30.451 12.1848 30.0365 13.4787ZM29.1069 7.80081C27.9136 7.42396 27.2478 6.14266 27.6121 4.9493C27.9889 3.75594 29.2702 3.07761 30.4636 3.45446C31.6569 3.83131 32.3353 5.10004 31.9459 6.30597C31.5941 7.51189 30.3128 8.17766 29.1069 7.80081ZM33.5789 11.1171C33.3025 11.9713 32.3981 12.4486 31.5564 12.1723C30.7023 11.9085 30.2249 11.004 30.5013 10.1498C30.7776 9.29565 31.6821 8.83087 32.5237 9.09466C33.3779 9.37102 33.8427 10.2629 33.5789 11.1171ZM14.8494 8.85599C14.8494 10.3383 13.6435 11.5442 12.1612 11.5442C10.6789 11.5442 9.473 10.3383 9.473 8.85599C9.473 7.37371 10.6789 6.16779 12.1612 6.16779C13.6435 6.18035 14.8494 7.38627 14.8494 8.85599Z" fill="#E4BD00"/>
</svg>
