<svg width="25" height="25" viewBox="0 0 25 25" fill="none" xmlns="http://www.w3.org/2000/svg">
    <path fill-rule="evenodd" clip-rule="evenodd" d="M19.1491 16.1335C18.9147 16.3679 18.5968 16.4995 18.2653 16.4995C17.9339 16.4995 17.616 16.3679 17.3816 16.1335L13.2653 12.0173L9.14909 16.1335C9.03378 16.2529 8.89585 16.3481 8.74335 16.4137C8.59084 16.4792 8.42682 16.5136 8.26084 16.5151C8.09487 16.5165 7.93027 16.4849 7.77665 16.4221C7.62303 16.3592 7.48346 16.2664 7.3661 16.149C7.24873 16.0317 7.15591 15.8921 7.09306 15.7385C7.03021 15.5848 6.99858 15.4202 7.00003 15.2543C7.00147 15.0883 7.03595 14.9243 7.10146 14.7718C7.16697 14.6193 7.2622 14.4813 7.38159 14.366L12.3816 9.36602C12.616 9.13169 12.9339 9.00004 13.2653 9.00004C13.5968 9.00004 13.9147 9.13169 14.1491 9.36602L19.1491 14.366C19.3834 14.6004 19.5151 14.9183 19.5151 15.2498C19.5151 15.5812 19.3834 15.8991 19.1491 16.1335Z" fill="#E7E7E7"/>
</svg>
