<svg width="18" height="18" viewBox="0 0 18 18" fill="none" xmlns="http://www.w3.org/2000/svg">
<path d="M17.7138 16.3126L12.6099 11.2086C13.5326 10.003 14.0256 8.52338 14.0111 7.00532C14.0111 3.13651 10.8746 0 7.00532 0C3.13604 0 0 3.13651 0 7.00532C0 10.8741 3.13651 14.0106 7.00532 14.0106C8.52338 14.0256 10.003 13.5321 11.2086 12.6094L16.3126 17.7134C16.702 18.0948 17.3245 18.0948 17.7138 17.7134C18.0952 17.3245 18.0952 16.702 17.7138 16.3126ZM2.00172 7.00532C2.00172 4.24175 4.24222 2.00125 7.00579 2.00125C9.76935 2.00125 12.0094 4.24175 12.0094 7.00532C12.0094 9.76888 9.76888 12.0094 7.00532 12.0094C4.24175 12.0094 2.00172 9.76888 2.00172 7.00532Z" fill="white" fill-opacity="0.6"/>
</svg>
